<?xml version="1.0" ?><!-- Uploaded to: SVG Repo, www.svgrepo.com, Generator: SVG Repo Mixer Tools -->
<svg fill="#000000" width="800px" height="800px" viewBox="0 0 64 64" id="Layer_1_1_" version="1.1" xml:space="preserve" xmlns="http://www.w3.org/2000/svg" xmlns:xlink="http://www.w3.org/1999/xlink"><path d="M47.939,24.104c-0.468-1.458-1.077-2.867-1.835-4.198l3.237-8.632L38.399,8.842L36,14.6V1h-2.192L28,3.323V14.6  l-2.399-5.758L14.66,11.273l2.84,7.573c0.206,0.548,0.071,1.169-0.343,1.583c-1.128,1.128-1.836,2.56-2.067,4.11  C10.768,26.824,8,31.371,8,36.281c0,3.925,1.698,7.651,4.659,10.226L32,63.325l19.405-16.873C54.325,43.912,56,40.236,56,36.366  C56,30.881,52.676,26.161,47.939,24.104z M39.601,11.158l7.059,1.569l-2.766,7.374l0.249,0.414c0.539,0.898,0.997,1.841,1.389,2.811  C44.597,23.118,43.63,23,42.634,23h-0.89c-2.357,0-4.646,0.619-6.675,1.79c0.152-2.163,0.633-4.275,1.472-6.291L39.601,11.158z   M34,3.077v16.584c-0.652,2.091-0.988,4.258-0.996,6.468L32,26.798l-1.024-0.683C30.986,25.956,31,25.798,31,25.636  c0-2.076-0.348-4.104-1-6.058V4.677L34,3.077z M18.571,21.843c0.967-0.967,1.281-2.418,0.802-3.699l-2.032-5.418l7.059-1.569  l3.28,7.871C28.555,21.132,29,23.356,29,25.636C29,28.594,26.594,31,23.636,31h-1.272C19.406,31,17,28.594,17,25.636  C17,24.203,17.558,22.856,18.571,21.843z M50.092,44.942L33,59.805v-3.528l2.857-4.763l-1.715-1.029l-2.461,4.101l-2.127-1.418  l-1.109,1.664L31,56.535v3.27L13.972,44.997C11.448,42.804,10,39.626,10,36.281c0-3.814,1.965-7.373,5.108-9.439  c0.494,2.979,2.775,5.359,5.706,5.99l-0.688,3.44l-4.497,1.799l0.743,1.857l4.146-1.658L22,41.236V46h2v-5.236l-1.952-3.904  L22.82,33h0.816c3.151,0,5.839-1.993,6.888-4.782L31,28.535v6.26l-3,6.999v4.872L25.2,50.4l1.6,1.199l3.2-4.267v-5.128l2.337-5.454  L36,40.414V47h2v-6.323l4.372-1.749l-0.743-1.857l-4.388,1.755L33,34.586v-6.051l2.439-1.626C37.312,25.66,39.493,25,41.744,25h0.89  c6.143,0,11.151,4.903,11.347,11h-4.363l-3-6H40v2h5.382l3,6h5.486C53.479,40.675,52.159,43.145,50.092,44.942z"/></svg>